<?xml version="1.0" encoding="utf-8"?>
<!-- Generator: Adobe Illustrator 24.3.0, SVG Export Plug-In . SVG Version: 6.00 Build 0)  -->
<svg version="1.1" xmlns="http://www.w3.org/2000/svg" xmlns:xlink="http://www.w3.org/1999/xlink" x="0px" y="0px"
	 viewBox="-178.3 -166.8 1000 800" enable-background="new -178.3 -166.8 1000 800" xml:space="preserve">
<g id="Layer_1">
	<g>
		<path fill="#494368" d="M79.9,286.1c4,0,7.3,1.4,10.1,4.2c2.8,2.8,4.2,6.2,4.2,10.1V350H43.5c-4,0-7.3-1.4-10.1-4.2
			c-2.8-2.8-4.2-6.2-4.2-10.1v-23.6h53.1v-11.7c0-0.7-0.2-1.2-0.7-1.7c-0.5-0.5-1-0.7-1.7-0.7H29.2v-11.9H79.9z M82.3,338.1V324
			H41.1v11.7c0,0.7,0.2,1.2,0.7,1.7c0.5,0.5,1,0.7,1.7,0.7H82.3z"/>
		<path fill="#494368" d="M197,286.1h12.7l-24,63.9h-9.7l-21.5-47.5L134.2,350l-0.2-0.1l0.1,0.1h-9.6l-25.1-63.9H112l17.3,42.4
			l18.4-42.4h13.6l19.5,42.4L197,286.1z"/>
		<path fill="#494368" d="M264.2,286.1c4,0,7.3,1.4,10.1,4.2c2.8,2.8,4.2,6.2,4.2,10.1V324h-53.1v11.7c0,0.7,0.2,1.2,0.7,1.7
			c0.5,0.5,1,0.7,1.7,0.7h50.7V350h-50.7c-4,0-7.3-1.4-10.1-4.2c-2.8-2.8-4.2-6.2-4.2-10.1v-35.3c0-4,1.4-7.3,4.2-10.1
			c2.8-2.8,6.2-4.2,10.1-4.2H264.2z M225.4,312.1h41.2v-11.7c0-0.7-0.2-1.2-0.7-1.7c-0.5-0.5-1-0.7-1.7-0.7h-36.4
			c-0.7,0-1.2,0.2-1.7,0.7c-0.5,0.5-0.7,1-0.7,1.7V312.1z"/>
		<path fill="#494368" d="M354.4,300.5v2.4h-11.9v-2.4c0-0.7-0.2-1.2-0.7-1.7c-0.5-0.5-1-0.7-1.7-0.7h-36.4c-0.7,0-1.2,0.2-1.7,0.7
			c-0.5,0.5-0.7,1-0.7,1.7v9.3c0,0.7,0.2,1.2,0.7,1.7c0.5,0.5,1,0.7,1.7,0.7h36.4c4,0,7.3,1.4,10.1,4.2c2.8,2.8,4.2,6.2,4.2,10.1
			v9.3c0,4-1.4,7.3-4.2,10.1c-2.8,2.8-6.2,4.2-10.1,4.2h-36.4c-4,0-7.3-1.4-10.1-4.2c-2.8-2.8-4.2-6.2-4.2-10.1v-2.4h11.9v2.4
			c0,0.7,0.2,1.2,0.7,1.7c0.5,0.5,1,0.7,1.7,0.7h36.4c0.7,0,1.2-0.2,1.7-0.7c0.5-0.5,0.7-1,0.7-1.7v-9.3c0-0.7-0.2-1.2-0.7-1.7
			c-0.5-0.5-1-0.7-1.7-0.7h-36.4c-4,0-7.3-1.4-10.1-4.2c-2.8-2.8-4.2-6.2-4.2-10.1v-9.3c0-4,1.4-7.3,4.2-10.1
			c2.8-2.8,6.2-4.2,10.1-4.2h36.4c4,0,7.3,1.4,10.1,4.2C353,293.1,354.4,296.5,354.4,300.5z"/>
		<path fill="#494368" d="M379.6,286.1H416c4,0,7.3,1.4,10.1,4.2c2.8,2.8,4.2,6.2,4.2,10.1v35.3c0,4-1.4,7.3-4.2,10.1
			c-2.8,2.8-6.2,4.2-10.1,4.2h-36.4c-4,0-7.3-1.4-10.1-4.2c-2.8-2.8-4.2-6.2-4.2-10.1v-35.3c0-4,1.4-7.3,4.2-10.1
			C372.3,287.5,375.7,286.1,379.6,286.1z M416,298h-36.4c-0.7,0-1.2,0.2-1.7,0.7c-0.5,0.5-0.7,1-0.7,1.7v35.3c0,0.7,0.2,1.2,0.7,1.7
			c0.5,0.5,1,0.7,1.7,0.7H416c0.7,0,1.2-0.2,1.7-0.7c0.5-0.5,0.7-1,0.7-1.7v-35.3c0-0.7-0.2-1.2-0.7-1.7
			C417.2,298.3,416.7,298,416,298z"/>
		<path fill="#494368" d="M523.5,286.1c4,0,7.3,1.4,10.1,4.2c2.8,2.8,4.2,6.2,4.2,10.1V350h-11.8v-49.6c0-0.7-0.2-1.2-0.7-1.7
			c-0.5-0.5-1.1-0.7-1.8-0.7h-25.2c-0.7,0-1.2,0.2-1.7,0.7c-0.5,0.5-0.7,1-0.7,1.7V350H484v-49.6c0-0.7-0.2-1.2-0.7-1.7
			c-0.5-0.5-1-0.7-1.7-0.7h-25.3c-0.7,0-1.2,0.2-1.7,0.7c-0.5,0.5-0.7,1-0.7,1.7V350h-11.9v-63.9H523.5z"/>
		<path fill="#494368" d="M600,286.1c4,0,7.3,1.4,10.1,4.2c2.8,2.8,4.2,6.2,4.2,10.1V324h-53.1v11.7c0,0.7,0.2,1.2,0.7,1.7
			c0.5,0.5,1,0.7,1.7,0.7h50.7V350h-50.7c-4,0-7.3-1.4-10.1-4.2c-2.8-2.8-4.2-6.2-4.2-10.1v-35.3c0-4,1.4-7.3,4.2-10.1
			c2.8-2.8,6.2-4.2,10.1-4.2H600z M561.2,312.1h41.2v-11.7c0-0.7-0.2-1.2-0.7-1.7c-0.5-0.5-1-0.7-1.7-0.7h-36.4
			c-0.7,0-1.2,0.2-1.7,0.7c-0.5,0.5-0.7,1-0.7,1.7V312.1z"/>
	</g>
	<path fill="#E67164" d="M614.2,54L614.2,54l-150-137.6l-21.1,23L568.1,54H361.3h-15.6h-48h-0.2h-15.4H75.4l125-114.7l-21.1-23
		L29.3,54l0,0h-0.1v90.7c0,41,39.5,74.4,88,74.4h92.5c48.5,0,88-33.4,88-74.4V85.2h48v59.6c0,41,39.5,74.4,88,74.4h92.5
		c48.5,0,88-33.4,88-74.4V54H614.2z"/>
	<g>
		<g>
			<g>
				<path fill="#494368" d="M34.3,446.8v-43.9c0-3.8,1.3-7,4-9.7s5.8-4,9.5-4h31.5v13H50.5c-1.8,0-2.9,0.1-3.1,0.3
					c-0.2,0.2-0.3,1.3-0.3,3.1v41.1H34.3z"/>
				<path fill="#494368" d="M98.7,446.8c-3.7,0-6.9-1.3-9.5-4s-4-5.9-4-9.7v-30.2c0-3.8,1.3-7,4-9.7s5.8-4,9.5-4h30.6
					c3.7,0,6.9,1.3,9.5,4c2.6,2.7,4,5.9,4,9.7v30.2c0,3.8-1.3,7-4,9.7c-2.6,2.7-5.8,4-9.5,4H98.7z M101.4,433.8h25.1
					c1.8,0,2.9-0.1,3.1-0.3c0.2-0.2,0.3-1.3,0.3-3.1v-24.6c0-1.9-0.1-2.9-0.3-3.1c-0.2-0.2-1.3-0.3-3.1-0.3h-25.1
					c-1.8,0-2.9,0.1-3.1,0.3c-0.2,0.2-0.3,1.3-0.3,3.1v24.6c0,1.9,0.1,2.9,0.3,3.1C98.6,433.7,99.6,433.8,101.4,433.8z"/>
				<path fill="#494368" d="M166.3,446.8c-3.7,0-6.9-1.3-9.5-4s-4-5.9-4-9.7v-30.2c0-3.8,1.3-7,4-9.7s5.8-4,9.5-4h44v13h-41.3
					c-1.8,0-2.9,0.1-3.1,0.3c-0.2,0.2-0.3,1.3-0.3,3.1v24.6c0,1.9,0.1,2.9,0.3,3.1c0.2,0.2,1.3,0.3,3.1,0.3h41.4v13H166.3z"/>
				<path fill="#494368" d="M221.1,446.8v-76.5h12.8v41.1H244l20.2-22.2h13.7v3.6L255.3,418l22.5,25.2v3.6h-13.6L244,424.6h-10.1
					v22.2H221.1z"/>
				<path fill="#494368" d="M297.4,446.8c-3.7,0-6.9-1.3-9.5-4s-4-5.9-4-9.7v-30.2c0-3.8,1.3-7,4-9.7s5.8-4,9.5-4H328
					c3.7,0,6.9,1.3,9.5,4s4,5.9,4,9.7v21.7h-44.8v5.8c0,1.9,0.1,2.9,0.3,3.1c0.2,0.2,1.3,0.3,3.1,0.3h41.4v13H297.4z M296.8,412.9
					h32v-7.2c0-1.9-0.1-2.9-0.3-3.1c-0.2-0.2-1.3-0.3-3.1-0.3h-25.1c-1.8,0-2.9,0.1-3.1,0.3c-0.2,0.2-0.3,1.3-0.3,3.1V412.9z"/>
				<path fill="#494368" d="M365.3,446.8c-3.7,0-6.9-1.3-9.5-4s-4-5.9-4-9.7v-61.6h12.8v17.7h22.1v13h-22.1v28.1
					c0,1.9,0.1,2.9,0.3,3.1c0.2,0.2,1.3,0.3,3.1,0.3h18.7v13H365.3z"/>
				<path fill="#494368" d="M394.7,469.7v-80.5h44.1c3.7,0,6.9,1.3,9.5,4c2.6,2.7,4,5.9,4,9.7v30.2c0,3.8-1.3,7-4,9.7
					c-2.6,2.7-5.8,4-9.5,4h-31.3v22.8H394.7z M411,433.8h25.1c1.8,0,2.9-0.1,3.1-0.3c0.2-0.2,0.3-1.3,0.3-3.1v-24.6
					c0-1.9-0.1-2.9-0.3-3.1c-0.2-0.2-1.3-0.3-3.1-0.3H411c-1.8,0-2.9,0.1-3.1,0.3c-0.2,0.2-0.3,1.3-0.3,3.1v24.6
					c0,1.9,0.1,2.9,0.3,3.1C408.1,433.7,409.1,433.8,411,433.8z"/>
				<path fill="#494368" d="M472.8,446.8c-3.7,0-6.9-1.3-9.5-4s-4-5.9-4-9.7v-30.2c0-3.8,1.3-7,4-9.7s5.8-4,9.5-4h30.6
					c3.7,0,6.9,1.3,9.5,4s4,5.9,4,9.7v30.2c0,3.8-1.3,7-4,9.7s-5.8,4-9.5,4H472.8z M475.6,433.8h25.1c1.8,0,2.9-0.1,3.1-0.3
					c0.2-0.2,0.3-1.3,0.3-3.1v-24.6c0-1.9-0.1-2.9-0.3-3.1c-0.2-0.2-1.3-0.3-3.1-0.3h-25.1c-1.8,0-2.9,0.1-3.1,0.3
					c-0.2,0.2-0.3,1.3-0.3,3.1v24.6c0,1.9,0.1,2.9,0.3,3.1C472.7,433.7,473.8,433.8,475.6,433.8z"/>
				<path fill="#494368" d="M540.5,446.8c-3.7,0-6.9-1.3-9.5-4s-4-5.9-4-9.7v-30.2c0-3.8,1.3-7,4-9.7s5.8-4,9.5-4h30.6
					c3.7,0,6.9,1.3,9.5,4s4,5.9,4,9.7v30.2c0,3.8-1.3,7-4,9.7s-5.8,4-9.5,4H540.5z M543.2,433.8h25.1c1.8,0,2.9-0.1,3.1-0.3
					c0.2-0.2,0.3-1.3,0.3-3.1v-24.6c0-1.9-0.1-2.9-0.3-3.1c-0.2-0.2-1.3-0.3-3.1-0.3h-25.1c-1.8,0-2.9,0.1-3.1,0.3
					c-0.2,0.2-0.3,1.3-0.3,3.1v24.6c0,1.9,0.1,2.9,0.3,3.1C540.4,433.7,541.4,433.8,543.2,433.8z"/>
				<path fill="#494368" d="M608.2,446.8c-3.7,0-6.9-1.3-9.5-4c-2.6-2.7-4-5.9-4-9.7v-62.9h12.9v60.1c0,1.9,0.1,2.9,0.3,3.1
					c0.2,0.2,1.2,0.3,3,0.3h8.7v13H608.2z"/>
			</g>
		</g>
	</g>
</g>
<g id="Layer_2">
	
		<image overflow="visible" width="137" height="255" xlink:href="../../../Downloads/rocket.png"  transform="matrix(0.3614 0.3614 -0.3614 0.3614 185.2237 67.7334)">
	</image>
	
		<image overflow="visible" width="137" height="255" xlink:href="../../../Downloads/rocket.png"  transform="matrix(0.3614 0.3614 -0.3614 0.3614 513.6232 67.7334)">
	</image>
</g>
</svg>
